<svg width="45" height="45" viewBox="0 0 45 45" fill="none" xmlns="http://www.w3.org/2000/svg">
    <path d="M0 22.6352C0.00126727 28.0262 1.91356 33.24 5.39316 37.3394C8.87277 41.4388 13.6915 44.1551 18.9832 45V29.1778H13.275V22.6352H18.99V17.6546C18.8638 16.489 18.9943 15.3096 19.3721 14.2003C19.7499 13.0911 20.3659 12.0792 21.1762 11.2364C21.9865 10.3937 22.9713 9.74076 24.0606 9.32409C25.15 8.90742 26.3172 8.73721 27.4792 8.82553C29.1667 8.8527 30.8542 9.00438 32.5192 9.27831V14.8452H29.6753C29.1919 14.7815 28.7005 14.8279 28.2373 14.981C27.7742 15.1341 27.3511 15.3899 26.9995 15.7296C26.6478 16.0693 26.3765 16.4842 26.2057 16.9436C26.0348 17.4029 25.9687 17.8951 26.0122 18.3836V22.6352H32.247L31.2502 29.18H26.0122V45C30.2594 44.3247 34.2253 42.439 37.4404 39.5662C40.6554 36.6934 42.9851 32.9538 44.1534 28.7902C45.3218 24.6266 45.28 20.2134 44.0329 16.073C42.7859 11.9325 40.3858 8.23835 37.1168 5.42778C33.8479 2.61721 29.847 0.80795 25.5878 0.214214C21.3286 -0.379522 16.9896 0.267129 13.0843 2.07761C9.17906 3.88809 5.87118 6.78657 3.55231 10.4299C1.23344 14.0732 0.000682583 18.3088 0 22.6352Z" fill="black"/>
</svg>
